<svg xmlns="http://www.w3.org/2000/svg" viewBox="0 0 650 650"><defs><style>.cls-1{fill:#010101;}</style></defs><g id="Ebene_2" data-name="Ebene 2"><g id="Logo_Symbol_BLack"><path id="Symbol" class="cls-1" d="M478.36,650a113.59,113.59,0,0,1-94.69-50.68L189.92,308.7v323A18.28,18.28,0,0,1,171.64,650H18.28A18.28,18.28,0,0,1,0,631.72V18.28A18.28,18.28,0,0,1,33.49,8.14L186.74,238l.24.36L334.07,459l.15.22C346.6,477.81,366,479.89,380,475.65s29-16.72,29-39V342.32c-86.08-9.16-153.36-82.21-153.36-170.68C255.6,77,332.59,0,427.24,0a18.27,18.27,0,0,1,18.28,18.28V306.72h32.84c94.65,0,171.64,77,171.64,171.64S573,650,478.36,650ZM370.77,514.07l43.32,65a77.09,77.09,0,0,0,64.27,34.39c74.48,0,135.08-60.6,135.08-135.08s-60.6-135.07-135.08-135.07H445.52v93.32c0,34.87-21.57,63.93-54.94,74A80.89,80.89,0,0,1,370.77,514.07ZM36.56,613.44h116.8V253.86L36.56,78.66ZM409,37.79c-65.87,9-116.8,65.57-116.8,133.85S343.09,296.54,409,305.49Z"/></g></g></svg>